<svg width="216" height="216" viewBox="0 0 216 216" fill="none" xmlns="http://www.w3.org/2000/svg">
<rect width="216" height="216" fill="#F5F5F5"/>
<circle cx="108" cy="108" r="108" fill="#FFC700"/>
<g clip-path="url(#clip0_0_1)">
<path d="M185.102 120.473C192.984 119.853 199.35 125.118 199.956 133.171C200.562 141.534 194.803 148.348 186.921 148.967C179.343 149.586 172.674 143.702 172.068 135.959C171.461 127.596 176.918 121.402 185.102 120.473Z" fill="white"/>
<path d="M89.3108 186.443C89.3108 178.39 95.3735 172.196 102.649 172.196C109.924 172.196 116.896 179.01 116.896 186.753C116.896 194.186 110.834 200.69 103.861 201C95.0704 201 89.3108 195.425 89.3108 186.443Z" fill="white"/>
<path d="M110.834 96.0048C109.621 96.6242 109.015 95.695 108.712 94.7659C97.4955 73.3952 100.83 46.4495 120.534 30.344C125.687 26.0079 135.388 25.0788 139.632 29.4149C141.451 30.9635 141.754 32.8218 142.057 34.9898C142.663 39.6356 143.573 44.2814 146.604 47.9981C149.938 52.0244 154.182 53.573 159.033 53.2633C163.277 53.2633 167.52 52.6439 170.249 57.5994C171.764 60.3869 171.158 71.2271 168.733 73.3952C167.52 74.3243 166.611 73.7049 165.702 73.3952C158.729 70.6077 151.454 70.6077 144.179 71.8466C141.754 72.1563 140.541 71.5368 140.541 68.7494C140.238 64.1035 139.329 59.7675 136.903 55.7411C132.356 47.3786 123.869 47.0689 118.412 54.8119C113.865 61.0063 112.652 68.4396 111.44 75.8729C110.227 82.3771 110.53 89.1909 110.834 96.0048Z" fill="white"/>
<path d="M118.412 100.651C117.806 99.7214 118.109 98.7923 119.018 98.1728C136.297 82.0673 162.064 78.9701 182.071 94.7659C187.224 99.102 190.559 108.084 187.831 113.349C186.618 115.517 185.102 116.446 183.284 117.066C179.04 118.924 175.099 120.782 172.371 124.809C169.642 128.835 169.036 133.481 170.249 138.436C171.158 142.463 172.674 146.799 168.733 150.516C166.611 152.684 156.304 154.542 153.576 152.684C152.364 151.754 152.667 150.825 152.97 149.586C153.879 141.843 152.06 134.72 149.332 127.906C148.423 125.428 148.726 124.189 151.151 123.57C155.395 122.331 159.336 120.163 162.367 117.066C169.036 110.562 167.52 102.199 158.729 98.4825C151.757 95.3853 144.482 96.0048 137.51 96.6242C130.841 96.9339 124.475 98.7923 118.412 100.651Z" fill="white"/>
<path d="M114.471 108.703C115.381 107.774 115.987 108.084 116.896 108.703C136.903 121.092 147.21 145.56 138.116 169.409C135.691 175.603 127.809 181.797 122.05 180.249C119.625 179.629 118.412 178.39 117.199 176.842C114.471 173.125 111.44 169.718 106.893 168.17C102.043 166.621 97.7986 167.55 93.5547 170.028C89.917 172.196 86.2794 174.983 81.7323 172.196C79.0041 170.647 74.457 161.046 75.3664 157.949C75.9727 156.71 77.1852 156.71 78.3978 156.71C85.9762 155.471 92.039 151.754 97.7986 146.799C99.6175 145.25 101.133 145.25 102.649 147.418C105.074 151.135 108.105 154.232 112.046 156.4C119.928 161.046 127.506 157.02 128.416 147.728C129.325 139.985 126.597 133.171 124.172 126.357C121.443 120.163 118.109 114.278 114.471 108.703Z" fill="white"/>
<path d="M104.771 110.562C103.558 116.756 100.83 122.641 97.1924 127.906C86.2794 144.631 70.5162 151.445 51.1153 149.586C44.1432 148.967 38.3835 143.082 37.7773 137.198C37.4741 134.72 38.0804 132.861 39.5961 131.003C41.7181 128.216 43.5369 125.738 44.4463 122.331C46.2651 115.517 43.84 109.942 38.9898 104.987C32.3208 98.1728 33.2302 91.9784 41.1118 87.0229C42.0212 86.4034 43.2337 85.784 44.4463 85.1645C46.2651 84.2354 47.7808 84.2354 48.3871 86.4034C51.1153 93.527 56.5718 98.7922 62.6346 103.128C64.7566 104.987 64.7566 106.226 62.9377 108.394C59.3001 112.42 57.1781 117.375 56.875 122.95C56.2687 129.764 60.2095 134.1 66.8785 134.1C71.1225 134.1 75.0633 132.552 78.7009 130.693C88.0982 125.738 95.3735 118.614 102.346 111.181C103.255 110.871 103.558 110.252 104.771 110.562Z" fill="white"/>
<path d="M55.0561 45.5203C55.6624 45.5203 57.1781 45.83 58.6938 46.1398C69.9099 48.3078 76.8821 44.2814 80.5198 33.4412C82.9449 26.3176 88.0982 24.1496 94.7673 27.8662C95.0704 27.8662 95.0704 28.176 95.3735 28.176C102.346 32.2023 102.346 32.8218 98.1018 39.0162C94.4641 43.9717 92.6453 49.5467 91.7359 55.4314C91.1296 58.8383 89.917 59.4577 86.8857 58.2189C82.0354 56.3605 76.8821 56.3605 71.7287 58.2189C65.9691 60.0772 63.544 65.3424 65.3628 71.2271C67.7879 78.9701 74.457 82.3771 80.2166 86.4034C85.9762 90.4298 92.6453 92.5978 99.0112 95.3853C99.9206 95.695 101.436 95.695 101.133 97.2436C100.83 98.1728 99.6175 98.1728 98.4049 98.1728C84.7637 98.7922 71.7288 96.6242 61.1189 87.3326C51.1153 78.9701 43.84 68.7493 45.0526 54.5022C45.962 49.8564 49.2965 46.4495 55.0561 45.5203Z" fill="white"/>
<path d="M30.1988 132.552C22.9235 133.481 15.6482 127.287 15.0419 119.544C14.4356 112.11 20.4984 104.677 27.4706 104.057C35.3522 103.128 42.6275 108.703 43.2338 116.137C43.5369 123.26 38.9898 131.932 30.1988 132.552Z" fill="white"/>
<path d="M157.517 22.2913C165.095 21.6718 172.371 27.8662 172.977 35.6093C173.583 43.0425 167.52 50.1661 160.245 50.7856C152.364 51.405 145.391 45.5203 144.785 37.7773C144.179 30.0343 149.635 22.9107 157.517 22.2913Z" fill="white"/>
<path d="M78.3978 28.176C79.3072 36.2287 73.8507 43.0426 65.666 44.2814C58.6938 45.2106 51.4185 39.3259 50.5091 32.5121C49.5996 23.5302 54.4499 17.026 62.6346 16.0969C70.213 15.1677 77.4884 21.0524 78.3978 28.176Z" fill="white"/>
</g>
<defs>
<clipPath id="clip0_0_1">
<rect width="185" height="185" fill="white" transform="translate(15 16)"/>
</clipPath>
</defs>
</svg>
