<?xml version="1.0" ?><svg enable-background="new 0 0 515.91 728.5" height="512" id="Layer_1" version="1.1" viewBox="0 0 512.00003 512" width="512" xml:space="preserve" xmlns="http://www.w3.org/2000/svg" xmlns:cc="http://creativecommons.org/ns#" xmlns:dc="http://purl.org/dc/elements/1.1/" xmlns:inkscape="http://www.inkscape.org/namespaces/inkscape" xmlns:rdf="http://www.w3.org/1999/02/22-rdf-syntax-ns#" xmlns:sodipodi="http://sodipodi.sourceforge.net/DTD/sodipodi-0.dtd" xmlns:svg="http://www.w3.org/2000/svg"><defs id="defs7"/><g id="g4338" transform="translate(136.1786,108.25001)"><path d="m -733.62329,72.267944 c 0,203.804876 -165.21649,369.021366 -369.02141,369.021366 -203.8048,0 -369.0213,-165.21649 -369.0213,-369.021366 0,-203.804874 165.2165,-369.021364 369.0213,-369.021364 203.80492,0 369.02141,165.21649 369.02141,369.021364 z" id="path5012" style="fill:#0079c1;fill-opacity:1;fill-rule:nonzero;stroke:none" transform="matrix(0.69372682,0,0,0.69372682,884.75558,97.615782)"/><g id="g5374" transform="matrix(1.2780898,0,0,1.2780898,-665.65112,-863.68504)"><path d="m 561.43979,852.61487 c 1.9078,-41.86926 3.84966,-83.70446 5.79152,-125.57372 -12.84354,-11.68524 -25.68708,-23.37047 -38.49656,-35.05571 -6.06405,0.61322 -9.53897,8.27846 -14.47879,11.88964 -5.58711,3.84966 -8.89168,9.4027 -3.03203,14.7854 5.75745,9.50491 11.54897,19.00981 17.30642,28.51471 -6.20033,8.75541 -5.58711,23.20013 -19.14608,22.10997 -9.64117,2.35067 -19.79336,3.44084 -29.14495,6.60914 -0.83807,9.13016 -0.86532,18.87353 0,28.00369 12.41769,4.19033 25.63598,6.4388 38.37731,9.87964 1.0561,11.61711 14.4788,22.28031 3.27051,31.92148 -5.1783,8.51694 -11.65117,16.48879 -16.01184,25.38048 5.85965,7.05202 12.70727,13.9337 19.79336,19.82742 7.18829,-4.97389 12.46879,-13.32048 18.9076,-19.62302 5.62117,-6.2344 11.24235,-12.43473 16.8976,-18.66912 z" id="path6-6" style="fill:#ffffff"/><path d="m 590.66992,713.58439 c 35.87334,21.9737 71.71261,43.98146 107.58594,65.95516 16.82947,-3.67932 33.65894,-7.3927 50.48841,-11.07202 2.62321,-5.48491 -2.07814,-12.43473 -2.62322,-18.53285 -0.37475,-6.74542 -3.40678,-12.4688 -11.03795,-10.2544 -11.14015,0 -22.24624,0 -33.38639,0 -4.25847,-9.87964 -16.89761,-16.86353 -8.95982,-27.83335 2.99796,-9.5049 7.3927,-18.73726 9.53897,-28.34436 -7.3927,-5.48491 -15.67116,-10.561 -23.94963,-14.581 -10.01592,8.41474 -18.80539,18.53286 -28.34436,27.62895 -10.49287,-5.11017 -26.57285,0.81762 -28.99166,-13.76337 -4.59914,-8.85762 -8.03998,-18.53286 -13.35455,-26.87946 -9.06202,1.32865 -18.53286,3.61118 -27.22013,6.60915 0.40881,10.42473 4.25847,21.05386 6.02999,31.54673 1.39678,6.50694 2.82762,13.04795 4.2244,19.55489 z" id="path8-1" style="fill:#ffffff"/><path d="m 696.14366,809.17849 c -36.17994,19.8615 -72.35989,39.68892 -108.53984,59.51635 -4.39474,16.55693 -8.75541,33.11385 -13.15015,49.70485 3.54305,4.93982 11.92371,4.12219 17.51082,6.60914 6.1322,2.89576 12.60507,2.99796 14.34252,-4.76949 5.34864,-9.74337 10.69728,-19.48675 16.04591,-29.23012 10.69728,0.98796 22.9276,-6.74542 28.75318,5.55304 6.84762,7.15423 12.84354,15.46676 20.27031,21.93963 8.31253,-3.81559 16.76133,-8.65321 24.25624,-13.93371 -2.55508,-12.84354 -7.1883,-25.44861 -10.561,-38.18994 9.5049,-6.71135 12.05998,-23.64302 25.99369,-18.77133 9.98185,0.34068 20.13404,1.83966 30.01368,1.22644 3.1683,-8.61914 5.72338,-17.98777 7.2905,-27.04979 -7.90372,-3.81559 -17.7493,-4.29254 -26.4025,-6.81355 -8.61914,-1.9078 -17.23828,-3.84966 -25.82336,-5.79152 z" id="path10-8" style="fill:#ffffff"/></g></g></svg>