<svg width="160" height="200" viewBox="0 0 160 200" fill="none" xmlns="http://www.w3.org/2000/svg">
<circle cx="80" cy="100" r="80" fill="url(#paint0_linear_1_6)"/>
<path d="M69.6335 130.227V129.503C69.714 121.816 70.5189 115.698 72.0483 111.151C73.5777 106.603 75.7509 102.92 78.5682 100.103C81.3854 97.2857 84.7661 94.6899 88.7102 92.3153C91.0848 90.8665 93.2178 89.156 95.1094 87.1839C97.0009 85.1716 98.4901 82.8575 99.5767 80.2415C100.704 77.6255 101.267 74.7277 101.267 71.5483C101.267 67.6042 100.341 64.1832 98.4901 61.2855C96.6387 58.3878 94.1636 56.1541 91.0646 54.5845C87.9657 53.0149 84.5246 52.2301 80.7415 52.2301C77.4413 52.2301 74.2618 52.9143 71.2031 54.2827C68.1444 55.651 65.5888 57.8042 63.5362 60.7422C61.4837 63.6802 60.2964 67.5237 59.9744 72.2727H44.7614C45.0833 65.4309 46.8542 59.575 50.0739 54.7053C53.3338 49.8355 57.62 46.1127 62.9325 43.5369C68.2853 40.9612 74.2216 39.6733 80.7415 39.6733C87.8248 39.6733 93.9825 41.0819 99.2145 43.8991C104.487 46.7164 108.552 50.58 111.409 55.49C114.307 60.4001 115.756 65.9943 115.756 72.2727C115.756 76.6998 115.071 80.7043 113.703 84.2862C112.375 87.8681 110.443 91.0677 107.908 93.8849C105.412 96.7022 102.394 99.1974 98.8523 101.371C95.3106 103.584 92.4733 105.919 90.3402 108.374C88.2072 110.788 86.6577 113.666 85.6918 117.006C84.7259 120.347 84.2027 124.512 84.1222 129.503V130.227H69.6335ZM77.3608 165.966C74.3826 165.966 71.8269 164.899 69.6939 162.766C67.5608 160.633 66.4943 158.078 66.4943 155.099C66.4943 152.121 67.5608 149.566 69.6939 147.433C71.8269 145.299 74.3826 144.233 77.3608 144.233C80.339 144.233 82.8947 145.299 85.0277 147.433C87.1608 149.566 88.2273 152.121 88.2273 155.099C88.2273 157.071 87.7242 158.883 86.718 160.533C85.7521 162.183 84.4441 163.511 82.794 164.517C81.1842 165.483 79.3731 165.966 77.3608 165.966Z" fill="url(#paint1_linear_1_6)"/>
<defs>
<linearGradient id="paint0_linear_1_6" x1="80" y1="20" x2="80" y2="180" gradientUnits="userSpaceOnUse">
<stop stop-color="#0194FF"/>
<stop offset="1" stop-color="#007AD2"/>
</linearGradient>
<linearGradient id="paint1_linear_1_6" x1="85" y1="0" x2="85" y2="200" gradientUnits="userSpaceOnUse">
<stop stop-color="white"/>
<stop offset="1" stop-color="#D6D6D6" stop-opacity="0.96"/>
</linearGradient>
</defs>
</svg>
