<?xml version="1.0" ?><svg enable-background="new 0 0 515.91 728.5" height="512" id="Layer_1" version="1.1" viewBox="0 0 512.00003 512" width="512" xml:space="preserve" xmlns="http://www.w3.org/2000/svg" xmlns:cc="http://creativecommons.org/ns#" xmlns:dc="http://purl.org/dc/elements/1.1/" xmlns:inkscape="http://www.inkscape.org/namespaces/inkscape" xmlns:rdf="http://www.w3.org/1999/02/22-rdf-syntax-ns#" xmlns:sodipodi="http://sodipodi.sourceforge.net/DTD/sodipodi-0.dtd" xmlns:svg="http://www.w3.org/2000/svg"><defs id="defs7"/><g id="g4051" transform="translate(333.31493,-18.900921)"><path d="m -733.62329,72.267944 c 0,203.804876 -165.21649,369.021366 -369.02141,369.021366 -203.8048,0 -369.0213,-165.21649 -369.0213,-369.021366 0,-203.804874 165.2165,-369.021364 369.0213,-369.021364 203.80492,0 369.02141,165.21649 369.02141,369.021364 z" id="path4940" style="fill:#507708;fill-opacity:1;fill-rule:nonzero;stroke:none" transform="matrix(0.69372682,0,0,0.69372682,687.61925,224.76671)"/><path d="m -76.035504,185.91311 c -15.73271,0.0391 -20.61381,0.33819 -28.152406,1.70997 -21.3519,3.88534 -40.6847,11.75702 -54.8179,22.35341 -6.3985,4.79743 -27.9946,24.23094 -41.8816,37.66868 -36.56391,35.38097 -51.48561,53.87689 -48.57281,60.2699 0.5959,1.30792 1.5604,1.98256 2.8252,1.98256 3.8846,0 16.80351,-10.16486 46.88761,-36.85088 28.5645,-25.3381 36.8696,-31.82656 46.7637,-36.60306 4.9018,-2.36644 8.3516,-3.32876 8.3516,-2.3295 0,0.18723 -1.49,2.59652 -3.3208,5.35291 -3.9284,5.91416 -7.9751,15.16623 -9.2933,21.26298 -1.3081,6.04996 -1.1446,19.25558 0.3221,24.98028 1.6141,6.29917 5.1787,13.47512 8.7481,17.64482 6.6278,7.74249 19.5589,14.72008 33.084,17.81827 10.0984,2.31324 24.705896,2.30953 33.207896,0 17.40341,-4.72825 32.94061,-17.14393 40.39471,-32.29099 4.3392,-8.81668 5.8152,-15.07513 5.7991,-24.58377 -0.034,-19.68129 -9.5622,-33.69398 -25.0547,-36.85088 -10.2413,-2.08726 -20.44521,2.23 -20.44521,8.64893 0,1.16428 1.1598,3.83837 2.5773,5.94768 1.41761,2.10933 3.55201,5.2708 4.73341,7.01332 5.1318,7.56929 4.6106,15.63636 -1.363,21.60995 -8.88461,8.88459 -22.59581,7.14165 -28.548906,-3.64297 -2.081,-3.77013 -2.3761,-5.09906 -2.379,-10.65628 0,-8.15117 2.3102,-13.13601 9.293196,-20.04865 6.0106,-5.94997 8.9634,-7.99739 17.9422,-12.46536 8.23711,-4.09893 15.13961,-6.30445 23.71651,-7.55852 11.3192,-1.65513 28.8403,1.2596 41.832,6.96374 8.5839,3.76911 23.5134,13.1781 29.094,18.3387 8.7082,8.05191 9.3271,10.42198 5.3529,20.49474 -6.8147,17.2739 -17.7151,33.63709 -31.7704,47.70542 -14.425,14.4377 -28.3767,23.64489 -44.4591,29.31714 -10.5247,3.71218 -18.2451,4.88206 -32.06791,4.88206 -22.489196,0 -37.131596,-3.40528 -80.715096,-18.75999 -10.4252,-3.67288 -21.5677,-7.08746 -24.7572,-7.58332 -7.816,-1.2151 -12.8605,0.24822 -23.9146,6.88942 -20.99671,12.61448 -26.88371,21.68165 -20.42041,31.44841 4.72291,7.13682 16.69991,10.36212 21.31251,5.74944 2.3967,-2.39664 3.2577,-6.02033 2.6764,-11.17671 -0.3518,-3.12122 -0.1245,-3.91499 1.5613,-5.60075 1.8889,-1.88895 2.2732,-1.95975 9.6402,-1.56127 4.9558,0.26806 10.8811,1.30353 16.7774,2.8995 24.3104,6.58015 40.3026,10.54465 51.1501,12.68841 54.588896,10.78815 93.261706,3.87251 129.535706,-23.17121 16.8375,-12.55304 29.8837,-26.15874 57.5935,-60.02207 6.9595,-8.5052 18.9202,-21.78291 26.5663,-29.51541 7.6462,-7.73251 14.36201,-15.16154 14.91881,-16.50483 1.2922,-3.11716 0.041,-6.01097 -3.46941,-8.05416 -1.3474,-0.78444 -18.8337,-5.92415 -38.8583,-11.39973 -79.8647,-21.83832 -93.8917,-24.49598 -128.3957,-24.41033 z" id="rect3000" style="fill:#ffffff;fill-opacity:1;fill-rule:nonzero;stroke:none"/></g></svg>