<?xml version="1.0" ?><svg enable-background="new 0 0 515.91 728.5" height="512" id="Layer_1" version="1.1" viewBox="0 0 512.00003 512" width="512" xml:space="preserve" xmlns="http://www.w3.org/2000/svg" xmlns:cc="http://creativecommons.org/ns#" xmlns:dc="http://purl.org/dc/elements/1.1/" xmlns:inkscape="http://www.inkscape.org/namespaces/inkscape" xmlns:rdf="http://www.w3.org/1999/02/22-rdf-syntax-ns#" xmlns:sodipodi="http://sodipodi.sourceforge.net/DTD/sodipodi-0.dtd" xmlns:svg="http://www.w3.org/2000/svg"><defs id="defs7"/><g id="g3998" transform="translate(-176.96352,-292.08031)"><path d="m -733.62329,72.267944 c 0,203.804876 -165.21649,369.021366 -369.02141,369.021366 -203.8048,0 -369.0213,-165.21649 -369.0213,-369.021366 0,-203.804874 165.2165,-369.021364 369.0213,-369.021364 203.80492,0 369.02141,165.21649 369.02141,369.021364 z" id="path7970" style="fill:#000044;fill-opacity:1;fill-rule:nonzero;stroke:none" transform="matrix(0.69372682,0,0,0.69372682,1197.8977,497.9461)"/><g id="g5548" transform="matrix(0.81058408,0,0,0.81058408,227.86047,-186.66349)"><path d="m 253,630.125 c -154.347186,0 -276.3125,121.96555 -276.3125,276.3125 0,154.3473 121.965314,276.3125 276.3125,276.3125 154.34666,0 276.375,-121.9833 276.375,-276.3125 C 529.375,752.10861 407.34666,630.125 253,630.125 z m 0,13.78125 c 146.91202,0 262.59375,115.63791 262.59375,262.53125 0,146.8936 -115.68173,262.5313 -262.59375,262.5313 -146.91306,0 -262.53125,-115.6182 -262.53125,-262.5313 0,-146.91309 115.61819,-262.53125 262.53125,-262.53125 z" id="path7247" style="fill:#ffffff;fill-opacity:1;stroke:none"/><path d="m 450.25139,763.07019 c -18.96342,23.78752 -61.2932,7.66807 -68.13049,28.45438 -13.0672,6.85626 -14.09265,17.64044 0.64123,31.34015 14.86649,19.11861 21.15668,37.1561 -17.7138,44.00416 -33.59753,0.77538 -53.86803,-7.59547 -75.50487,-15.06886 -46.22561,-16.09329 -94.10278,-53.90934 -136.90219,-9.69845 -19.2271,23.4864 -35.73436,49.57156 -48.25216,79.43202 -6.066278,-6.29481 -12.338259,-12.85611 -15.550042,-16.59165 -4.711488,-4.93413 -5.785673,-6.45076 -5.690771,-10.01932 -0.801535,-5.79542 -3.857372,-4.02717 -4.248265,-0.56095 -1.070851,3.25539 0.695348,7.2192 2.003966,11.06119 5.52713,8.64606 11.967112,17.05385 19.878072,25.08792 -3.433135,8.97335 -6.525137,18.29655 -9.217526,27.97371 -0.836674,5.52996 -2.441797,11.0617 -2.564912,16.59166 -0.334465,0.35677 -0.655592,0.7015 -0.961843,1.12214 l -11.542106,12.18334 c -4.853327,5.95624 -9.093641,8.76457 -16.671931,6.17195 -13.126452,-5.44967 -25.857395,-8.74686 -38.393661,-10.66055 -4.516555,0.45374 -9.358853,0.49657 -12.1833345,3.20614 -3.3518276,2.08502 -3.7091199,6.18324 2.5649125,4.24827 3.592929,-1.81827 5.629983,-1.36787 12.824562,1.28246 7.044533,2.16863 22.076972,7.6686 33.103273,11.9427 9.993669,4.7164 18.816968,3.7179 26.450917,-3.3664 l 10.099086,-11.14122 c 1.763634,2.10221 4.007419,4.2298 6.973483,6.332 7.19817,4.93722 15.4931,6.87192 27.33222,10.74062 -10.92627,0.3308 -18.84415,4.7966 -22.84362,14.7482 -0.80641,1.9799 -2.11016,6.4128 5.69103,6.4123 l 19.23684,0 c 4.82024,0.1744 8.57245,-2.282 11.06093,-7.9351 2.88091,-5.8134 2.72137,-5.9875 3.3667,-7.0535 2.26302,0.9413 4.57581,1.8293 7.05351,2.9656 3.51573,1.4709 24.61855,2.3989 35.18727,-5.1299 l 0,3.2865 c -9.53866,5.9703 -12.72325,11.9837 -10.25965,17.9543 0.28419,0.9008 0.80435,2.8166 3.68706,2.8856 l 20.91994,0.08 c 7.91891,0.044 8.87511,0.031 8.97719,-3.7674 l 1.12241,-33.26354 c -0.78307,-9.12904 -0.73613,-13.9103 10.90088,-21.24082 15.16299,-7.86069 31.8244,-14.87906 50.97763,-17.55349 2.67803,0.26418 6.01523,-0.27034 10.09908,-0.96184 1.94164,7.11173 -3.438,15.55004 -5.53046,23.40483 l -6.41228,17.31316 c -11.01091,0.29112 -19.06474,4.7469 -23.08421,14.7482 -0.9444,2.6688 -2.51182,6.6196 5.77105,6.4123 l 19.23685,0 c 4.82024,0.1744 8.57219,-2.3623 11.06117,-8.0153 4.56863,-9.2209 9.65587,-16.00123 14.58794,-23.40485 10.64619,-9.73795 21.73559,-18.86904 30.53837,-30.85924 3.91713,0.86489 8.03766,2.0368 12.34389,3.52676 6.66724,5.26781 33.19382,22.02926 51.37828,44.32503 5.09135,5.9096 3.43903,10.037 -0.32062,13.6261 -1.57588,1.8903 -7.35616,10.4012 4.80922,9.5381 l 20.03837,0.2411 c 4.7987,0.2883 8.06819,-1.9167 6.41229,-6.9732 l -10.33994,-18.9965 c -16.44647,-25.29184 -22.13314,-52.95007 -32.14143,-79.67261 -13.93594,-34.91437 5.03749,-49.92013 23.24452,-63.96252 l -2.08399,0 c 7.53623,-17.22108 0.67303,-27.97319 -2.56491,-31.82082 -7.71885,-9.86568 -21.39265,-21.66531 -8.9772,-25.08818 25.61245,-0.95082 27.98089,-13.56249 44.966,-16.67194 3.30874,-0.44347 10.24272,-15.5149 13.54607,-23.16424 z" id="path7263" style="fill:#ffffff;fill-opacity:1;fill-rule:evenodd;stroke:none"/></g></g></svg>