<?xml version="1.0" ?><svg enable-background="new 0 0 515.91 728.5" height="512" id="Layer_1" version="1.1" viewBox="0 0 512.00003 512" width="512" xml:space="preserve" xmlns="http://www.w3.org/2000/svg" xmlns:cc="http://creativecommons.org/ns#" xmlns:dc="http://purl.org/dc/elements/1.1/" xmlns:inkscape="http://www.inkscape.org/namespaces/inkscape" xmlns:rdf="http://www.w3.org/1999/02/22-rdf-syntax-ns#" xmlns:sodipodi="http://sodipodi.sourceforge.net/DTD/sodipodi-0.dtd" xmlns:svg="http://www.w3.org/2000/svg"><defs id="defs7"/><g id="g6788" transform="translate(136.1786,108.25001)"><path d="m -733.62329,72.267944 c 0,203.804876 -165.21649,369.021366 -369.02141,369.021366 -203.8048,0 -369.0213,-165.21649 -369.0213,-369.021366 0,-203.804874 165.2165,-369.021364 369.0213,-369.021364 203.80492,0 369.02141,165.21649 369.02141,369.021364 z" id="path5060" style="fill:#4962ae;fill-opacity:1;fill-rule:nonzero;stroke:none" transform="matrix(0.69372682,0,0,0.69372682,884.75558,97.615782)"/><g id="g6804" style="fill:#ffffff;fill-opacity:1" transform="matrix(1.7666118,0,0,1.7606648,-221.76244,-1320.7157)"><path d="m 193.35532,706.81581 c -69.81683,0 -126.796405,56.65298 -126.796405,127.18402 0,70.53104 56.979575,127.26534 126.796405,127.26534 69.81683,0 126.79641,-56.7343 126.79641,-127.26534 0,-70.53104 -56.97958,-127.18402 -126.79641,-127.18402 z m 0,4.39127 c 68.25436,0 123.19424,55.25259 123.19424,122.79275 0,67.54016 -54.93988,122.79275 -123.19424,122.79275 -68.25435,0 -123.194234,-55.25259 -123.194234,-122.79275 0,-67.54016 54.939884,-122.79275 123.194234,-122.79275 z" id="path6787" style="font-size:medium;font-style:normal;font-variant:normal;font-weight:normal;font-stretch:normal;text-indent:0;text-align:start;text-decoration:none;line-height:normal;letter-spacing:normal;word-spacing:normal;text-transform:none;direction:ltr;block-progression:tb;writing-mode:lr-tb;text-anchor:start;baseline-shift:baseline;opacity:0.98999999;color:#000000;fill:#ffffff;fill-opacity:1;stroke:none;stroke-width:1.71281838;marker:none;visibility:visible;display:inline;overflow:visible;enable-background:accumulate;font-family:Sans;-inkscape-font-specification:Sans"/><path d="m 125.49113,828.49783 20.92712,-1.4594 c 0.99105,6.68892 3.29722,12.17691 6.91852,16.46385 3.62123,4.28695 9.24372,7.75306 16.86749,10.39823 7.62366,2.64517 16.20034,3.96775 25.73006,3.96775 8.46224,0 15.93348,-1.00339 22.41374,-3.01009 6.48006,-2.00661 11.30205,-4.75814 14.46601,-8.2547 3.16373,-3.49647 4.74565,-7.31213 4.74577,-11.44716 -1.2e-4,-4.19568 -1.52487,-7.85942 -4.57423,-10.99106 -3.04961,-3.13164 -8.08126,-5.76154 -15.09497,-7.8899 -4.4981,-1.39854 -14.44704,-3.57243 -29.84687,-6.52169 -15.39998,-2.94914 -26.18754,-5.73112 -32.3627,-8.34594 -8.00494,-3.34438 -13.9705,-7.49454 -17.89669,-12.4505 -3.92624,-4.95579 -5.88934,-10.50454 -5.88933,-16.64626 -1e-5,-6.74963 2.40146,-13.05848 7.20442,-18.92659 4.80292,-5.86788 11.81674,-10.32208 21.04147,-13.36262 9.22465,-3.04029 19.47855,-4.56049 30.76172,-4.56063 12.42658,1.4e-4 23.38567,1.59636 32.8773,4.78865 9.49142,3.19257 16.79112,7.89001 21.89914,14.09233 5.10776,6.20255 7.8523,13.22591 8.23362,21.07008 l -21.27018,1.27697 c -1.14368,-8.45226 -5.01271,-14.83712 -11.60712,-19.15461 -6.59462,-4.31728 -16.33391,-6.47597 -29.21791,-6.47609 -13.41782,1.2e-4 -23.19523,1.96119 -29.33227,5.88321 -6.13714,3.92224 -9.20568,8.65008 -9.20565,14.18353 -3e-5,4.80395 2.17273,8.75648 6.51829,11.85761 4.26923,3.10131 15.41891,6.27854 33.44908,9.53171 18.03,3.25332 30.39948,6.09611 37.10846,8.52836 9.75824,3.58775 16.96265,8.13317 21.61325,13.63626 4.65033,5.50318 6.97557,11.84246 6.97571,19.01777 -1.4e-4,7.11467 -2.55409,13.81878 -7.66184,20.11233 -5.10803,6.29373 -12.44585,11.18879 -22.0135,14.68526 -9.56787,3.49647 -20.33637,5.2447 -32.30552,5.2447 -15.17127,0 -27.88382,-1.76341 -38.13767,-5.29034 -10.25394,-3.52683 -18.29695,-8.83235 -24.12908,-15.91657 -5.83216,-7.08412 -8.9007,-15.09563 -9.20564,-24.03445 z" id="path6791" style="font-size:209.16362px;font-style:normal;font-variant:normal;font-weight:normal;font-stretch:normal;text-align:start;line-height:125%;writing-mode:lr-tb;text-anchor:start;fill:#ffffff;fill-opacity:1;stroke:none;font-family:Courier 10 Pitch"/><path d="m 103.61731,848.67051 -5.875,0.125 0.96875,43.125 0.0625,2.875 2.875,0 184.53125,0 0,-5.875 -181.65625,0 -0.90625,-40.25 z" id="path6793" style="font-size:medium;font-style:normal;font-variant:normal;font-weight:normal;font-stretch:normal;text-indent:0;text-align:start;text-decoration:none;line-height:normal;letter-spacing:normal;word-spacing:normal;text-transform:none;direction:ltr;block-progression:tb;writing-mode:lr-tb;text-anchor:start;baseline-shift:baseline;color:#000000;fill:#ffffff;fill-opacity:1;stroke:none;stroke-width:5.87562323;marker:none;visibility:visible;display:inline;overflow:visible;enable-background:accumulate;font-family:Sans;-inkscape-font-specification:Sans"/></g></g></svg>