<svg width="163" height="163" viewBox="0 0 163 163" fill="none" xmlns="http://www.w3.org/2000/svg">
<rect width="163" height="163" fill="#F5F5F5"/>
<circle cx="81.5" cy="81.5" r="81.5" fill="#3BD721"/>
<path fill-rule="evenodd" clip-rule="evenodd" d="M103.571 31.4018L103.571 31.4017C103.557 31.3937 103.544 31.3856 103.531 31.3775L103.571 31.4018ZM103.302 31.2395C79.1753 16.7751 46.7506 26.1212 30.7422 52.2147C14.7337 78.3083 21.1812 111.305 45.116 126.082L103.302 31.2395ZM54.7536 110.372C37.2678 99.7337 31.8032 76.9115 42.548 59.3975C53.2928 41.8836 76.1782 36.3102 93.664 46.9489L75.5218 76.5205L54.7536 110.372Z" fill="white"/>
<path fill-rule="evenodd" clip-rule="evenodd" d="M54.3569 132.125L54.3569 132.125C54.3627 132.129 54.3686 132.132 54.3744 132.136L54.3569 132.125ZM58.6135 134.48C84.6237 147.488 116.463 139.088 131.583 114.443C146.703 89.7974 139.678 57.7508 116.184 40.6401L106.602 56.2586C123.054 68.6399 128.486 90.285 118.536 106.504C108.585 122.723 86.7664 127.789 68.1954 118.862L58.6135 134.48Z" fill="white"/>
<circle cx="81.6366" cy="81.6366" r="21.5" transform="rotate(3.11522 81.6366 81.6366)" fill="white"/>
</svg>
